<?xml version="1.0" encoding="UTF-8"?>
<svg xmlns="http://www.w3.org/2000/svg" width="32" height="32" viewBox="0 0 32 32" fill="none">
    <path d="M16 0.375C12.9097 0.375 9.88874 1.29139 7.31922 3.00829C4.7497 4.72518 2.74701 7.16548 1.56439 10.0206C0.38177 12.8757 0.072343 16.0173 0.675237 19.0483C1.27813 22.0792 2.76627 24.8633 4.95146 27.0485C7.13666 29.2337 9.92077 30.7219 12.9517 31.3248C15.9827 31.9277 19.1243 31.6182 21.9794 30.4356C24.8345 29.253 27.2748 27.2503 28.9917 24.6808C30.7086 22.1113 31.625 19.0903 31.625 16C31.6205 11.8574 29.9728 7.88575 27.0435 4.95648C24.1143 2.02721 20.1426 0.379549 16 0.375ZM16 30.375C13.1569 30.375 10.3776 29.5319 8.01368 27.9524C5.64973 26.3728 3.80725 24.1278 2.71924 21.5011C1.63123 18.8744 1.34656 15.9841 1.90122 13.1956C2.45588 10.4071 3.82497 7.84572 5.83535 5.83534C7.84573 3.82496 10.4071 2.45587 13.1956 1.90121C15.9841 1.34655 18.8744 1.63122 21.5011 2.71923C24.1278 3.80724 26.3728 5.64972 27.9524 8.01368C29.5319 10.3776 30.375 13.1569 30.375 16C30.3709 19.8112 28.855 23.4652 26.1601 26.1601C23.4652 28.855 19.8112 30.3709 16 30.375ZM21.625 19.125C21.625 20.1196 21.2299 21.0734 20.5267 21.7767C19.8234 22.4799 18.8696 22.875 17.875 22.875H16.625V24.75C16.625 24.9158 16.5592 25.0747 16.4419 25.1919C16.3247 25.3092 16.1658 25.375 16 25.375C15.8342 25.375 15.6753 25.3092 15.5581 25.1919C15.4409 25.0747 15.375 24.9158 15.375 24.75V22.875H12.25C12.0842 22.875 11.9253 22.8092 11.8081 22.6919C11.6909 22.5747 11.625 22.4158 11.625 22.25C11.625 22.0842 11.6909 21.9253 11.8081 21.8081C11.9253 21.6908 12.0842 21.625 12.25 21.625H17.875C18.538 21.625 19.1739 21.3616 19.6428 20.8928C20.1116 20.4239 20.375 19.788 20.375 19.125C20.375 18.462 20.1116 17.8261 19.6428 17.3572C19.1739 16.8884 18.538 16.625 17.875 16.625H14.125C13.1304 16.625 12.1766 16.2299 11.4734 15.5267C10.7701 14.8234 10.375 13.8696 10.375 12.875C10.375 11.8804 10.7701 10.9266 11.4734 10.2233C12.1766 9.52009 13.1304 9.125 14.125 9.125H15.375V7.25C15.375 7.08424 15.4409 6.92527 15.5581 6.80806C15.6753 6.69085 15.8342 6.625 16 6.625C16.1658 6.625 16.3247 6.69085 16.4419 6.80806C16.5592 6.92527 16.625 7.08424 16.625 7.25V9.125H19.75C19.9158 9.125 20.0747 9.19085 20.1919 9.30806C20.3092 9.42527 20.375 9.58424 20.375 9.75C20.375 9.91576 20.3092 10.0747 20.1919 10.1919C20.0747 10.3092 19.9158 10.375 19.75 10.375H14.125C13.462 10.375 12.8261 10.6384 12.3572 11.1072C11.8884 11.5761 11.625 12.212 11.625 12.875C11.625 13.538 11.8884 14.1739 12.3572 14.6428C12.8261 15.1116 13.462 15.375 14.125 15.375H17.875C18.8696 15.375 19.8234 15.7701 20.5267 16.4733C21.2299 17.1766 21.625 18.1304 21.625 19.125Z"
          fill="#8E723B"></path>
</svg>