<?xml version="1.0" encoding="UTF-8"?>
<svg xmlns="http://www.w3.org/2000/svg" width="32" height="32" viewBox="0 0 32 32" fill="none">
    <path d="M16 0.375C12.9097 0.375 9.88874 1.29139 7.31922 3.00829C4.7497 4.72518 2.74701 7.16548 1.56439 10.0206C0.38177 12.8757 0.072343 16.0173 0.675237 19.0483C1.27813 22.0792 2.76627 24.8633 4.95146 27.0485C7.13666 29.2337 9.92077 30.7219 12.9517 31.3248C15.9827 31.9277 19.1243 31.6182 21.9794 30.4356C24.8345 29.253 27.2748 27.2503 28.9917 24.6808C30.7086 22.1113 31.625 19.0903 31.625 16C31.6205 11.8574 29.9728 7.88575 27.0435 4.95648C24.1143 2.02721 20.1426 0.379549 16 0.375ZM16 30.375C13.1569 30.375 10.3776 29.5319 8.01368 27.9524C5.64973 26.3728 3.80725 24.1278 2.71924 21.5011C1.63123 18.8744 1.34656 15.9841 1.90122 13.1956C2.45588 10.4071 3.82497 7.84572 5.83535 5.83534C7.84573 3.82496 10.4071 2.45587 13.1956 1.90121C15.9841 1.34655 18.8744 1.63122 21.5011 2.71923C24.1278 3.80724 26.3728 5.64972 27.9524 8.01368C29.5319 10.3776 30.375 13.1569 30.375 16C30.3709 19.8112 28.855 23.4652 26.1601 26.1601C23.4652 28.855 19.8112 30.3709 16 30.375ZM23.2203 7.94062L13.2203 12.9406C13.0998 13.0018 13.0018 13.0998 12.9406 13.2203L7.94063 23.2203C7.89293 23.3156 7.87041 23.4216 7.87519 23.5281C7.87997 23.6345 7.91191 23.738 7.96797 23.8287C8.02402 23.9193 8.10233 23.9942 8.19546 24.046C8.28858 24.0979 8.39342 24.1251 8.50001 24.125C8.59703 24.1249 8.69273 24.1024 8.77969 24.0594L18.7797 19.0594C18.9002 18.9982 18.9982 18.9002 19.0594 18.7797L24.0594 8.77969C24.1184 8.66229 24.1389 8.52929 24.1179 8.39958C24.097 8.26988 24.0357 8.15006 23.9428 8.05716C23.8499 7.96426 23.7301 7.903 23.6004 7.88208C23.4707 7.86116 23.3377 7.88164 23.2203 7.94062ZM18.0313 18.0312L9.89376 22.0938L13.9688 13.9688L22.1063 9.90625L18.0313 18.0312Z"
          fill="#8E723B"></path>
</svg>