<?xml version="1.0" encoding="UTF-8"?>
<svg xmlns="http://www.w3.org/2000/svg" width="32" height="32" viewBox="0 0 32 32" fill="none">
    <path d="M16 0.375C12.9097 0.375 9.88874 1.29139 7.31922 3.00829C4.7497 4.72518 2.74701 7.16548 1.56439 10.0206C0.38177 12.8757 0.072343 16.0173 0.675237 19.0483C1.27813 22.0792 2.76627 24.8633 4.95146 27.0485C7.13666 29.2337 9.92077 30.7219 12.9517 31.3248C15.9827 31.9277 19.1243 31.6182 21.9794 30.4356C24.8345 29.253 27.2748 27.2503 28.9917 24.6808C30.7086 22.1113 31.625 19.0903 31.625 16C31.6205 11.8574 29.9728 7.88575 27.0435 4.95648C24.1143 2.02721 20.1426 0.379549 16 0.375ZM30.3609 15.375H25.3516C25.1974 13.1114 24.2285 10.9802 22.6242 9.37583C21.0198 7.77148 18.8887 6.80259 16.625 6.64844V1.63906C20.2162 1.80011 23.6172 3.29898 26.1591 5.8409C28.701 8.38281 30.1999 11.7838 30.3609 15.375ZM15.375 15.375H7.90157C8.05276 13.4432 8.88869 11.6289 10.2588 10.2588C11.629 8.88868 13.4433 8.05275 15.375 7.90156V15.375ZM15.375 16.625V24.0984C13.4433 23.9472 11.629 23.1113 10.2588 21.7412C8.88869 20.3711 8.05276 18.5568 7.90157 16.625H15.375ZM16.625 16.625H24.0984C23.9473 18.5568 23.1113 20.3711 21.7412 21.7412C20.3711 23.1113 18.5568 23.9472 16.625 24.0984V16.625ZM16.625 15.375V7.90156C18.5568 8.05275 20.3711 8.88868 21.7412 10.2588C23.1113 11.6289 23.9473 13.4432 24.0984 15.375H16.625ZM15.375 1.63906V6.64844C13.1114 6.80259 10.9802 7.77148 9.37583 9.37583C7.77149 10.9802 6.80259 13.1114 6.64845 15.375H1.63907C1.80012 11.7838 3.29899 8.38281 5.84091 5.8409C8.38282 3.29898 11.7838 1.80011 15.375 1.63906ZM1.63907 16.625H6.64845C6.80259 18.8886 7.77149 21.0198 9.37583 22.6242C10.9802 24.2285 13.1114 25.1974 15.375 25.3516V30.3609C11.7838 30.1999 8.38282 28.701 5.84091 26.1591C3.29899 23.6172 1.80012 20.2162 1.63907 16.625ZM16.625 30.3609V25.3516C18.8887 25.1974 21.0198 24.2285 22.6242 22.6242C24.2285 21.0198 25.1974 18.8886 25.3516 16.625H30.3609C30.1999 20.2162 28.701 23.6172 26.1591 26.1591C23.6172 28.701 20.2162 30.1999 16.625 30.3609Z"
          fill="#8E723B"></path>
</svg>