<?xml version="1.0" encoding="UTF-8"?>
<svg xmlns="http://www.w3.org/2000/svg" width="32" height="32" viewBox="0 0 32 32" fill="none">
    <path d="M11.6246 13.1094V1.85938C11.6245 1.75947 11.6005 1.66103 11.5545 1.57231C11.5086 1.48359 11.442 1.40719 11.3605 1.34949C11.2789 1.2918 11.1847 1.2545 11.0857 1.24072C10.9868 1.22695 10.886 1.23709 10.7918 1.27031C7.2828 2.51064 4.3318 4.96273 2.46991 8.18523C0.608025 11.4077 -0.0424741 15.189 0.635502 18.8484C0.653026 18.9472 0.694056 19.0403 0.755125 19.1198C0.816194 19.1994 0.89551 19.263 0.986373 19.3055C1.07724 19.3479 1.17698 19.3679 1.27718 19.3637C1.37738 19.3594 1.47509 19.3312 1.56206 19.2812L11.3121 13.6562C11.4079 13.6009 11.4873 13.5211 11.5422 13.4251C11.5971 13.329 11.6256 13.22 11.6246 13.1094ZM10.3746 12.7484L1.72925 17.7359C1.353 14.6416 1.99277 11.5088 3.55213 8.80969C5.11149 6.11061 7.50593 3.99154 10.3746 2.77187V12.7484ZM29.5605 8.24375C29.5511 8.22344 29.5418 8.20469 29.5308 8.18594C29.5199 8.16719 29.5074 8.15 29.4964 8.13281C28.1203 5.77353 26.1501 3.81588 23.7821 2.45479C21.4141 1.09369 18.7309 0.376631 15.9996 0.375C15.8338 0.375 15.6748 0.440848 15.5576 0.558058C15.4404 0.675269 15.3746 0.83424 15.3746 1V15.7063L2.74956 23.0594C2.67839 23.1009 2.61612 23.156 2.56633 23.2216C2.51655 23.2873 2.48023 23.3621 2.45946 23.4418C2.4387 23.5215 2.4339 23.6046 2.44534 23.6862C2.45678 23.7677 2.48423 23.8463 2.52613 23.9172C4.26312 26.875 6.92514 29.179 10.1015 30.4738C13.2778 31.7686 16.792 31.9822 20.1017 31.0816C23.4115 30.1811 26.333 28.2165 28.4154 25.4908C30.4979 22.7652 31.6256 19.4301 31.6246 16C31.6279 13.2784 30.9161 10.6037 29.5605 8.24375ZM16.6246 1.63906C18.9339 1.74074 21.1846 2.39751 23.1862 3.55374C25.1878 4.70998 26.8812 6.3316 28.123 8.28125L16.6246 14.9781V1.63906ZM15.9996 30.375C13.6018 30.3682 11.2435 29.7648 9.1371 28.6191C7.03075 27.4735 5.24262 25.8216 3.93394 23.8125L16.3121 16.6109L16.3277 16.6016L28.7496 9.36406C29.8897 11.555 30.4462 14.0028 30.3652 16.4714C30.2842 18.9399 29.5685 21.346 28.2872 23.4575C27.0059 25.569 25.2021 27.3147 23.0498 28.5264C20.8976 29.738 18.4694 30.3747 15.9996 30.375Z"
          fill="#8E723B"></path>
</svg>